<svg width="32" height="35" viewBox="0 0 32 35" fill="none" xmlns="http://www.w3.org/2000/svg">
<g clip-path="url(#clip0_804_2)">
<path d="M10.6667 13.2343L5.33333 23.8247H16L10.6667 13.2343Z" fill="#421C7E"/>
<path d="M10.6667 34.4101L5.33333 23.8197H16L10.6667 34.4101Z" fill="#4F2197"/>
<path d="M15.8802 21.1932L10.5469 10.6053H21.2135L15.8802 21.1932Z" fill="#4F2197"/>
<path d="M5.33333 23.8197L0 13.2318H10.6667L5.33333 23.8197Z" fill="#5C27B0"/>
<path d="M15.9351 0L10.6018 10.5904H21.2684L15.9351 0Z" fill="#421C7E"/>
<path d="M5.33832 2.63892L10.6717 13.2268H0.00498962L5.33832 2.63892Z" fill="#4F2197"/>
<path d="M21.3333 13.2417L26.6667 23.8296H16L21.3333 13.2417Z" fill="#421C7E"/>
<path d="M21.3333 34.4151L26.6667 23.8271H16L21.3333 34.4151Z" fill="#4F2197"/>
<path d="M26.6667 23.8272L32 13.2368H21.3333L26.6667 23.8272Z" fill="#5C27B0"/>
<path d="M26.6617 2.64386L21.3283 13.2343H31.995L26.6617 2.64386Z" fill="#4F2197"/>
</g>
<defs>
<clipPath id="clip0_804_2">
<rect width="32" height="34.4151" fill="white"/>
</clipPath>
</defs>
</svg>
