<svg width="187" height="57" viewBox="0 0 187 57" fill="none" xmlns="http://www.w3.org/2000/svg">
<path d="M68.0097 43L62.1532 22.2727H67.1326L70.776 36.8466H70.965L74.6894 22.2727H79.6148L83.3393 36.7656H83.5417L87.1312 22.2727H92.1241L86.254 43H81.1667L77.2803 28.9929H76.9969L73.1106 43H68.0097ZM102.842 43.4048C100.818 43.4048 99.0638 42.9595 97.5794 42.0689C96.095 41.1783 94.9435 39.9323 94.1249 38.331C93.3152 36.7296 92.9104 34.8584 92.9104 32.7173C92.9104 30.5762 93.3152 28.7005 94.1249 27.0902C94.9435 25.4799 96.095 24.2294 97.5794 23.3388C99.0638 22.4482 100.818 22.0028 102.842 22.0028C104.866 22.0028 106.621 22.4482 108.105 23.3388C109.589 24.2294 110.736 25.4799 111.546 27.0902C112.365 28.7005 112.774 30.5762 112.774 32.7173C112.774 34.8584 112.365 36.7296 111.546 38.331C110.736 39.9323 109.589 41.1783 108.105 42.0689C106.621 42.9595 104.866 43.4048 102.842 43.4048ZM102.869 39.4915C103.967 39.4915 104.884 39.1901 105.622 38.5874C106.36 37.9756 106.908 37.157 107.268 36.1314C107.637 35.1058 107.822 33.9633 107.822 32.7038C107.822 31.4354 107.637 30.2884 107.268 29.2628C106.908 28.2282 106.36 27.4051 105.622 26.7933C104.884 26.1816 103.967 25.8757 102.869 25.8757C101.745 25.8757 100.809 26.1816 100.062 26.7933C99.3247 27.4051 98.7714 28.2282 98.4026 29.2628C98.0427 30.2884 97.8628 31.4354 97.8628 32.7038C97.8628 33.9633 98.0427 35.1058 98.4026 36.1314C98.7714 37.157 99.3247 37.9756 100.062 38.5874C100.809 39.1901 101.745 39.4915 102.869 39.4915ZM120.665 15.3636V43H115.78V15.3636H120.665ZM132.51 43.4048C130.837 43.4048 129.343 42.9775 128.03 42.1229C126.725 41.2592 125.7 40.0312 124.953 38.4389C124.215 36.8376 123.847 34.9169 123.847 32.6768C123.847 30.4368 124.22 28.5206 124.967 26.9283C125.722 25.3359 126.757 24.117 128.07 23.2713C129.384 22.4257 130.873 22.0028 132.537 22.0028C133.823 22.0028 134.858 22.2188 135.641 22.6506C136.432 23.0734 137.044 23.5682 137.476 24.1349C137.917 24.7017 138.259 25.201 138.501 25.6328H138.744V15.3636H142.779V43H138.839V39.7749H138.501C138.259 40.2157 137.908 40.7195 137.449 41.2862C136.999 41.853 136.378 42.3478 135.587 42.7706C134.795 43.1934 133.769 43.4048 132.51 43.4048ZM133.401 39.9638C134.561 39.9638 135.542 39.6579 136.342 39.0462C137.152 38.4254 137.764 37.5663 138.178 36.4688C138.6 35.3712 138.812 34.0937 138.812 32.6364C138.812 31.197 138.605 29.9375 138.191 28.858C137.777 27.7784 137.17 26.9373 136.369 26.3345C135.569 25.7318 134.579 25.4304 133.401 25.4304C132.186 25.4304 131.174 25.7453 130.364 26.375C129.555 27.0047 128.943 27.8639 128.529 28.9524C128.124 30.041 127.922 31.2689 127.922 32.6364C127.922 34.0218 128.129 35.2678 128.543 36.3743C128.956 37.4808 129.568 38.358 130.378 39.0057C131.197 39.6444 132.204 39.9638 133.401 39.9638ZM156.331 43.4183C154.289 43.4183 152.53 42.982 151.055 42.1094C149.588 41.2277 148.455 39.9908 147.654 38.3984C146.863 36.7971 146.467 34.9214 146.467 32.7713C146.467 30.6482 146.863 28.777 147.654 27.1577C148.455 25.5384 149.57 24.2744 151.001 23.3658C152.44 22.4571 154.123 22.0028 156.048 22.0028C157.217 22.0028 158.351 22.1963 159.448 22.5831C160.546 22.9699 161.531 23.5772 162.404 24.4048C163.276 25.2325 163.964 26.3075 164.468 27.63C164.972 28.9434 165.224 30.5402 165.224 32.4205V33.8509H148.747V30.8281H161.27C161.27 29.7666 161.054 28.8265 160.622 28.0078C160.19 27.1802 159.583 26.5279 158.801 26.0511C158.027 25.5743 157.118 25.3359 156.075 25.3359C154.941 25.3359 153.952 25.6148 153.106 26.1726C152.269 26.7214 151.622 27.4411 151.163 28.3317C150.713 29.2133 150.488 30.1714 150.488 31.206V33.5675C150.488 34.9529 150.731 36.1314 151.217 37.103C151.712 38.0746 152.4 38.8168 153.281 39.3295C154.163 39.8333 155.193 40.0852 156.372 40.0852C157.136 40.0852 157.833 39.9773 158.463 39.7614C159.093 39.5365 159.637 39.2036 160.096 38.7628C160.555 38.322 160.906 37.7777 161.149 37.13L164.967 37.8182C164.662 38.9427 164.113 39.9278 163.321 40.7734C162.538 41.6101 161.553 42.2623 160.366 42.7301C159.187 43.1889 157.842 43.4183 156.331 43.4183ZM185.698 22.2727L178.182 43H173.864L166.334 22.2727H170.666L175.915 38.223H176.131L181.367 22.2727H185.698Z" fill="#333333"/>
<g clip-path="url(#clip0_220_2)">
<path d="M17.6666 21.9193L8.83325 39.4596H26.4999L17.6666 21.9193Z" fill="#421C7E"/>
<path d="M17.6666 56.9918L8.83325 39.4514H26.4999L17.6666 56.9918Z" fill="#4F2197"/>
<path d="M26.3016 35.1012L17.4683 17.565H35.1349L26.3016 35.1012Z" fill="#4F2197"/>
<path d="M8.83333 39.4514L0 21.9152H17.6667L8.83333 39.4514Z" fill="#5C27B0"/>
<path d="M26.3924 0L17.5591 17.5404H35.2258L26.3924 0Z" fill="#421C7E"/>
<path d="M8.84163 4.37073L17.675 21.907H0.00830078L8.84163 4.37073Z" fill="#4F2197"/>
<path d="M35.3333 21.9316L44.1667 39.4679H26.5L35.3333 21.9316Z" fill="#421C7E"/>
<path d="M35.3333 57L44.1667 39.4637H26.5L35.3333 57Z" fill="#4F2197"/>
<path d="M44.1666 39.4638L52.9999 21.9234H35.3333L44.1666 39.4638Z" fill="#5C27B0"/>
<path d="M44.1583 4.37894L35.325 21.9193H52.9916L44.1583 4.37894Z" fill="#4F2197"/>
</g>
<defs>
<clipPath id="clip0_220_2">
<rect width="53" height="57" fill="white"/>
</clipPath>
</defs>
</svg>
